<?xml version="1.0" encoding="utf-8"?>
<!-- Generator: Adobe Illustrator 27.6.1, SVG Export Plug-In . SVG Version: 6.00 Build 0)  -->
<svg version="1.1" id="Vrstva_1" xmlns="http://www.w3.org/2000/svg" xmlns:xlink="http://www.w3.org/1999/xlink" x="0px" y="0px"
	 viewBox="0 0 198.43 141.73" style="enable-background:new 0 0 198.43 141.73;" xml:space="preserve">
<style type="text/css">
	.st0{fill:#3C3C3B;}
	.st1{fill:#5B92E5;}
	.st2{fill:#87CEFA;}
</style>
<g>
	<path class="st0" d="M135.38,99.19v-2.24l1.81-3.16h-1l-1.2,2.27h-0.02l-1.2-2.27h-1.06l1.82,3.19v2.21H135.38z M128.72,99.19
		v-1.58l0.88-1.03l1.52,2.61h1.02l-1.96-3.3l1.8-2.1h-1.04l-2.22,2.67v-2.67h-0.86v5.4H128.72z M126.11,93.79h-0.86v5.4h0.86V93.79z
		 M124.14,99.19v-0.77h-2.35v-4.63h-0.86v5.4H124.14z M118.38,95.3c0,0.52-0.48,0.77-1.29,0.77h-0.51v-1.52h0.48
		C117.95,94.54,118.38,94.75,118.38,95.3 M118.56,97.61c0,0.31-0.15,0.56-0.44,0.68c-0.29,0.13-0.69,0.15-1.13,0.15h-0.42v-1.63
		h0.86C118.14,96.82,118.56,97.11,118.56,97.61 M115.72,99.19h1.3c0.52,0,1.08-0.05,1.52-0.22c0.59-0.23,0.93-0.7,0.93-1.32
		c0-0.63-0.37-1.06-1.1-1.27c0.62-0.23,0.87-0.63,0.87-1.14c0-0.64-0.29-0.99-0.81-1.23c-0.42-0.18-0.89-0.23-1.34-0.23h-1.37V99.19
		z M114.04,93.79h-0.86v2.96c0,1.2-0.49,1.78-1.33,1.78c-0.83,0-1.33-0.58-1.33-1.78v-2.96h-0.86v2.87c0,1.71,0.69,2.64,2.17,2.64
		c1.52,0,2.21-0.94,2.21-2.64V93.79z M107.6,95.48c0,0.41-0.2,0.67-0.56,0.81c-0.22,0.09-0.46,0.11-1.11,0.11h-0.31v-1.85h0.27
		c0.74,0,0.91,0.03,1.05,0.08C107.37,94.76,107.6,95.06,107.6,95.48 M105.62,99.19v-2.02h0.17c0.81,0,1.12-0.04,1.4-0.11
		c0.77-0.22,1.32-0.84,1.32-1.6c0-0.94-0.75-1.5-1.68-1.63c-0.23-0.03-0.52-0.04-1.07-0.04h-1v5.4H105.62z M103.15,99.19v-0.77
		h-2.45v-1.62h2.45v-0.77h-2.45v-1.48h2.45v-0.77h-3.31v5.4H103.15z M97.31,95.44c0,0.65-0.57,0.85-1.7,0.85h-0.28v-1.75h0.23
		C96.99,94.54,97.31,94.76,97.31,95.44 M94.47,93.79v5.4h0.86v-2.15h0.63l1.6,2.15h1.09l-1.71-2.26c0.77-0.18,1.28-0.75,1.28-1.53
		c0-1.13-0.75-1.6-2.53-1.6H94.47z M89.32,91.89l-0.62-0.48l-1.16,1.6l0.52,0.4L89.32,91.89z M89.69,99.19v-0.77h-2.45v-1.62h2.45
		v-0.77h-2.45v-1.48h2.45v-0.77h-3.31v5.4H89.69z M81.85,99.19v-1.58l0.88-1.03l1.51,2.61h1.02l-1.96-3.3l1.8-2.1h-1.04l-2.22,2.67
		v-2.67h-0.86v5.4H81.85z M79.39,94.22c-0.49-0.34-0.97-0.54-1.65-0.54c-0.91,0-1.7,0.48-1.7,1.51c0,0.91,0.64,1.22,1.3,1.45
		c0.68,0.24,1.37,0.39,1.37,1.03c0,0.62-0.5,0.87-1.01,0.87c-0.51,0-0.88-0.16-1.37-0.62l-0.55,0.59c0.57,0.55,1.16,0.8,1.92,0.8
		c0.76,0,1.92-0.47,1.92-1.7c0-1-0.74-1.34-1.44-1.57c-0.65-0.22-1.28-0.36-1.28-0.89c0-0.45,0.36-0.7,0.9-0.7
		c0.44,0,0.81,0.19,1.11,0.4L79.39,94.22z M74.63,99.19v-0.77h-2.45v-1.62h2.45v-0.77h-2.45v-1.48h2.45v-0.77h-3.31v5.4H74.63z
		 M66.94,91.89l0.97,1.49h0.83l0.99-1.49l-0.51-0.34l-0.88,1.22l-0.88-1.22L66.94,91.89z M69.65,98.18
		c-0.36,0.24-0.76,0.36-1.16,0.36c-1.19,0-2.01-0.79-2.01-2.05c0-1.18,0.86-2.05,2.02-2.05c0.39,0,0.75,0.11,1.07,0.3l0.4-0.65
		c-0.43-0.27-0.92-0.42-1.46-0.42c-1.63,0-2.94,1.2-2.94,2.81c0,1.72,1.3,2.81,2.92,2.81c0.59,0,1.14-0.18,1.6-0.5L69.65,98.18z
		 M61.36,93.79h-1.3L58.39,98h-0.01l-1.63-4.21h-1.3v5.4h0.86v-4.34l1.74,4.34h0.67l1.76-4.35v4.35h0.86V93.79z M53.77,93.79h-0.86
		v2.96c0,1.2-0.49,1.78-1.33,1.78c-0.83,0-1.33-0.58-1.33-1.78v-2.96h-0.86v2.87c0,1.71,0.69,2.64,2.17,2.64
		c1.52,0,2.21-0.94,2.21-2.64V93.79z M44.99,99.19v-1.58l0.88-1.03l1.52,2.61h1.02l-1.96-3.3l1.8-2.1h-1.04l-2.22,2.67v-2.67h-0.86
		v5.4H44.99z M42.75,94.23v-0.44h-3.62v0.77h2.42l-2.44,4.16v0.47h3.85v-0.77h-2.68L42.75,94.23z M37.33,91.89l-0.63-0.48l-1.16,1.6
		l0.52,0.4L37.33,91.89z M36.53,99.19v-2.24l1.81-3.16h-1l-1.2,2.27h-0.02l-1.2-2.27h-1.06l1.82,3.19v2.21H36.53z M33.29,93.79
		h-0.93l-1.56,4.27h-0.02l-1.56-4.27h-0.98l2.06,5.4h0.89L33.29,93.79z"/>
	<path class="st0" d="M156.04,79.22l-0.63-0.48l-1.16,1.6l0.52,0.4L156.04,79.22z M155.24,86.52v-2.24l1.81-3.16h-1l-1.2,2.27h-0.02
		l-1.2-2.27h-1.06l1.82,3.19v2.21H155.24z M148.62,86.52v-1.58l0.88-1.03l1.52,2.61h1.02l-1.96-3.3l1.8-2.1h-1.04l-2.22,2.67v-2.67
		h-0.86v5.4H148.62z M146.15,85.51c-0.36,0.24-0.76,0.36-1.16,0.36c-1.19,0-2.01-0.79-2.01-2.05c0-1.18,0.86-2.05,2.02-2.05
		c0.39,0,0.75,0.11,1.07,0.3l0.4-0.65c-0.43-0.27-0.92-0.42-1.46-0.42c-1.63,0-2.94,1.2-2.94,2.81c0,1.71,1.3,2.81,2.92,2.81
		c0.59,0,1.14-0.18,1.6-0.5L146.15,85.51z M140.64,81.13h-0.86v5.4h0.86V81.13z M137.12,86.52h0.9v-5.4h-0.86v4.01l-2.95-4.01h-0.89
		v5.4h0.86v-4.01L137.12,86.52z M132.1,81.89v-0.77h-3.59v0.77h1.36v4.63h0.86v-4.63H132.1z M126.92,83.83
		c0,1.18-0.82,2.05-1.95,2.05c-1.13,0-1.95-0.86-1.95-2.05c0-1.18,0.82-2.05,1.95-2.05C126.1,81.78,126.92,82.64,126.92,83.83
		 M127.83,83.83c0-1.56-1.23-2.81-2.86-2.81c-1.63,0-2.86,1.25-2.86,2.81c0,1.56,1.23,2.81,2.86,2.81
		C126.6,86.64,127.83,85.39,127.83,83.83 M121.63,81.13h-0.93l-1.56,4.27h-0.02l-1.56-4.27h-0.98l2.06,5.4h0.89L121.63,81.13z
		 M114.05,82.25h0.02l0.87,2.38h-1.76L114.05,82.25z M111.56,86.52h0.93l0.41-1.13h2.32l0.42,1.13h0.98l-2.06-5.4h-0.89
		L111.56,86.52z M109.41,82.77c0,0.65-0.57,0.85-1.71,0.85h-0.27v-1.75h0.23C109.09,81.87,109.41,82.09,109.41,82.77 M106.57,81.13
		v5.4h0.86v-2.15h0.63l1.6,2.15h1.09l-1.71-2.26c0.77-0.18,1.28-0.75,1.28-1.53c0-1.13-0.75-1.6-2.53-1.6H106.57z M104.29,83.86
		c0,1.03-0.52,1.57-1.38,1.77c-0.36,0.09-0.74,0.12-1.43,0.12v-3.86c1.1,0,1.52,0.09,1.89,0.28
		C103.95,82.47,104.29,83.04,104.29,83.86 M105.19,83.8c0-1.32-0.7-2.06-1.6-2.42c-0.37-0.15-0.79-0.26-2.23-0.26h-0.76v5.4h0.8
		c1.28,0,1.63-0.09,1.96-0.18C104.39,86.09,105.19,85.26,105.19,83.8 M99.22,81.56v-0.44h-3.62v0.77h2.42l-2.44,4.16v0.47h3.86
		v-0.77h-2.68L99.22,81.56z M90.88,83.83c0,1.18-0.82,2.05-1.95,2.05s-1.95-0.86-1.95-2.05c0-1.18,0.82-2.05,1.95-2.05
		S90.88,82.64,90.88,83.83 M91.79,83.83c0-1.56-1.23-2.81-2.86-2.81c-1.63,0-2.86,1.25-2.86,2.81c0,1.56,1.23,2.81,2.86,2.81
		C90.56,86.64,91.79,85.39,91.79,83.83 M84.02,82.77c0,0.65-0.57,0.85-1.7,0.85h-0.28v-1.75h0.23
		C83.7,81.87,84.02,82.09,84.02,82.77 M81.18,81.13v5.4h0.86v-2.15h0.63l1.6,2.15h1.09l-1.71-2.26c0.77-0.18,1.28-0.75,1.28-1.53
		c0-1.13-0.75-1.6-2.53-1.6H81.18z M79.07,82.81c0,0.41-0.2,0.67-0.56,0.81c-0.22,0.09-0.46,0.11-1.11,0.11h-0.31v-1.85h0.27
		c0.74,0,0.91,0.03,1.05,0.08C78.84,82.09,79.07,82.4,79.07,82.81 M77.09,86.52v-2.02h0.17c0.81,0,1.12-0.04,1.4-0.11
		c0.77-0.22,1.32-0.84,1.32-1.6c0-0.94-0.75-1.5-1.68-1.63c-0.23-0.03-0.52-0.04-1.07-0.04h-1v5.4H77.09z M69.6,82.25h0.02
		l0.87,2.38h-1.76L69.6,82.25z M67.11,86.52h0.93l0.41-1.13h2.32l0.42,1.13h0.98l-2.06-5.4H69.2L67.11,86.52z M64.96,82.77
		c0,0.65-0.57,0.85-1.71,0.85h-0.28v-1.75h0.23C64.64,81.87,64.96,82.09,64.96,82.77 M62.12,81.13v5.4h0.86v-2.15h0.63l1.6,2.15
		h1.09l-1.71-2.26c0.77-0.18,1.28-0.75,1.28-1.53c0-1.13-0.75-1.6-2.53-1.6H62.12z M60.51,81.13h-0.86v2.96
		c0,1.2-0.49,1.78-1.33,1.78c-0.83,0-1.33-0.58-1.33-1.78v-2.96h-0.86V84c0,1.71,0.69,2.64,2.17,2.64c1.52,0,2.21-0.94,2.21-2.64
		V81.13z M54.96,81.89v-0.77h-3.59v0.77h1.36v4.63h0.86v-4.63H54.96z M49.24,86.52h0.9v-5.4h-0.86v4.01l-2.95-4.01h-0.89v5.4h0.86
		v-4.01L49.24,86.52z M43.84,86.52v-0.77h-2.45v-1.62h2.45v-0.77h-2.45v-1.48h2.45v-0.77h-3.32v5.4H43.84z M38.97,83.45h-2.12v0.75
		h1.28v1.11c-0.36,0.37-0.83,0.57-1.4,0.57c-1.19,0-2-0.79-2-2.05c0-1.17,0.84-2.05,2-2.05c0.61,0,1.15,0.28,1.5,0.73l0.63-0.53
		c-0.53-0.59-1.27-0.97-2.11-0.97c-1.6,0-2.92,1.2-2.92,2.81c0,1.71,1.3,2.81,2.92,2.81c0.9,0,1.71-0.39,2.24-1.05V83.45z
		 M30.74,82.25h0.02l0.87,2.38h-1.76L30.74,82.25z M28.25,86.52h0.93l0.41-1.13h2.32l0.42,1.13h0.98l-2.06-5.4h-0.89L28.25,86.52z"
		/>
	<g>
		<path class="st1" d="M129.4,51.51c0,11.39-9.12,20.65-20.45,20.88c8.56-0.23,15.44-7.25,15.44-15.87c0-1.75-0.28-3.44-0.81-5.01
			c-1.29-3.89-4.06-7.12-7.63-9.02c-2.14-1.14-4.57-1.8-7.15-1.84c-0.09,0-0.19,0-0.28,0c-7.01,0-12.97,4.55-15.06,10.86
			c-0.53-1.58-0.81-3.26-0.81-5.01c0-2.55,0.6-4.96,1.67-7.09c2.5-5,7.58-8.5,13.49-8.77c0.09,0,0.19-0.01,0.28-0.01
			c0.15,0,0.29,0,0.43,0c0.15,0,0.29,0,0.43,0C120.28,30.86,129.4,40.12,129.4,51.51"/>
		<path class="st1" d="M108.52,55.24c2.06,0,3.73-1.67,3.73-3.73c0-2.06-1.67-3.73-3.73-3.73c-2.06,0-3.73,1.67-3.73,3.73
			C104.79,53.57,106.46,55.24,108.52,55.24"/>
		<path class="st2" d="M124.39,56.52c0,8.62-6.87,15.64-15.44,15.87c-0.15,0-0.29,0.01-0.43,0.01c-0.14,0-0.29,0-0.43-0.01
			c-9.12-0.19-16.8-6.21-19.45-14.49c-0.61-1.88-0.95-3.88-0.99-5.96v-0.02c0-0.14,0-0.27,0-0.41c0-11.29,8.96-20.49,20.17-20.87
			c-5.91,0.26-10.99,3.76-13.49,8.77c-1.07,2.13-1.67,4.54-1.67,7.09c0,1.75,0.28,3.44,0.81,5.01c2.09,6.31,8.05,10.86,15.06,10.86
			c3.43,0,6.6-1.09,9.2-2.93c2.72-1.93,4.8-4.7,5.87-7.93C124.11,53.08,124.39,54.77,124.39,56.52"/>
	</g>
	<path class="st0" d="M78.12,44.13h-2.76L70.02,58.7h-0.03l-5.34-14.58h-2.92l7.05,18.42h2.21L78.12,44.13z M59.23,45.5v-1.37H47.28
		v2.26h8.5L47.07,61.2v1.34h12.81v-2.26h-9.31L59.23,45.5z M36.55,47.97h0.03l3.08,8.39h-6.18L36.55,47.97z M44.84,62.54
		l-7.05-18.42h-2.21l-7.13,18.42h2.76l1.42-3.92h7.84l1.45,3.92H44.84z"/>
	<path class="st0" d="M166.15,49.49c0,2.1-1.82,3-4.26,3h-2.29v-6.1h2.82C164.65,46.39,166.15,47.63,166.15,49.49 M170.18,62.54
		l-5.84-7.95c2.26-0.47,4.5-2.05,4.5-5.18c0-3.82-3.47-5.29-6.29-5.29h-5.47v18.42h2.53v-7.79h1.89l5.52,7.79H170.18z M149.79,42.76
		l2.89-3.53l-1.42-1.11l-2.66,3.05l-2.68-3.05l-1.45,1.11l2.82,3.53H149.79z M154.31,61.18l-1.34-1.87
		c-1.29,0.87-2.63,1.29-4.08,1.29c-4.21,0-7.21-2.79-7.21-7.26c0-4.21,3.05-7.26,7.21-7.26c1.37,0,2.66,0.42,3.76,1.11l1.18-1.95
		c-1.45-0.89-3.13-1.42-4.95-1.42c-5.45,0-9.89,4.08-9.89,9.52c0,5.81,4.39,9.52,9.89,9.52C150.87,62.86,152.74,62.26,154.31,61.18"
		/>
</g>
</svg>
